# xmcd CD database file
#
# Track frame offsets:
#	150
#	13655
#	25066
#	43814
#	62597
#	83605
#	94681
#	113489
#	128267
#	143235
#	160730
#	184743
#	195511
#	209900
#
# Disc length: 3098 seconds
#
# Revision: 0
# Processed by: cddbd v1.5.2PL0 Copyright (c) Steve Scherf et al.
# Submitted via: CD2WAV32(JP) R3.22
#
DISCID=b00c180e
DTITLE=美空ひばり - 美空ひばり大全集 ～共に歩んだ20年～
DYEAR=2012
DGENRE=Folk
TTITLE0=母さんギター
TTITLE1=三百六十五夜
TTITLE2=城ヶ島の雨
TTITLE3=哀愁出船
TTITLE4=ひばりの佐渡情話
TTITLE5=遊侠街道
TTITLE6=柔
TTITLE7=お島千太郎
TTITLE8=のれん一代
TTITLE9=津軽のふるさと
TTITLE10=悲しい酒(セリフ入り)
TTITLE11=花と剣
TTITLE12=真実一路
TTITLE13=芸道一代
EXTD=
EXTT0=
EXTT1=
EXTT2=
EXTT3=
EXTT4=
EXTT5=
EXTT6=
EXTT7=
EXTT8=
EXTT9=
EXTT10=
EXTT11=
EXTT12=
EXTT13=
PLAYORDER=
